<?xml version="1.0" encoding="UTF-8"?>
<svg width="1200" height="820" xmlns="http://www.w3.org/2000/svg">
  <defs>
    <style>
      .title { font-family: Arial, sans-serif; font-size: 24px; font-weight: bold; fill: #2c3e50; }
      .subtitle { font-family: Arial, sans-serif; font-size: 18px; font-weight: bold; fill: #34495e; }
      .text { font-family: Arial, sans-serif; font-size: 14px; fill: #2c3e50; }
      .small-text { font-family: Arial, sans-serif; font-size: 12px; fill: #7f8c8d; }
      .problem-box { fill: #f4a460; stroke: #daa520; stroke-width: 2; }
      .solution-box { fill: #27ae60; stroke: #229954; stroke-width: 2; }
      .value-box { fill: #3498db; stroke: #2980b9; stroke-width: 2; }
      .arrow { stroke: #2c3e50; stroke-width: 3; marker-end: url(#arrowhead); }
      .highlight { fill: #f39c12; stroke: #e67e22; stroke-width: 2; }
    </style>
    <marker id="arrowhead" markerWidth="10" markerHeight="7" refX="9" refY="3.5" orient="auto">
      <polygon points="0 0, 10 3.5, 0 7" fill="#2c3e50" />
    </marker>
  </defs>
  
  <!-- 背景 -->
  <rect width="1200" height="800" fill="#f8f9fa"/>
  
  <!-- 标题 -->
  <text x="600" y="40" text-anchor="middle" class="title">NetPulse 项目价值定位</text>
  
  <!-- 问题区域 -->
  <rect x="50" y="80" width="300" height="320" rx="10" class="problem-box" opacity="0.9"/>
  <text x="200" y="110" text-anchor="middle" class="subtitle" fill="white">传统网络管理痛点</text>
  
  <text x="70" y="140" class="text" fill="white">🔧 多厂商设备管理复杂</text>
  <text x="70" y="165" class="small-text" fill="white">• 不同厂商API不统一</text>
  <text x="70" y="185" class="small-text" fill="white">• 协议差异大(SSH/SNMP/API)</text>
  <text x="70" y="205" class="small-text" fill="white">• 配置格式不兼容</text>
  
  <text x="70" y="235" class="text" fill="white">⚡ 性能瓶颈严重</text>
  <text x="70" y="260" class="small-text" fill="white">• 频繁建立连接开销大</text>
  <text x="70" y="280" class="small-text" fill="white">• 批量操作响应慢</text>
  <text x="70" y="300" class="small-text" fill="white">• 并发处理能力有限</text>
  
  <text x="70" y="330" class="text" fill="white">🏗️ 架构扩展性差</text>
  <text x="70" y="355" class="small-text" fill="white">• 单点故障风险高</text>
  <text x="70" y="375" class="small-text" fill="white">• 水平扩展困难</text>
  
  <!-- 解决方案区域 -->
  <rect x="450" y="80" width="300" height="320" rx="10" class="solution-box" opacity="0.9"/>
  <text x="600" y="110" text-anchor="middle" class="subtitle" fill="white">NetPulse 解决方案</text>
  
  <text x="470" y="140" class="text" fill="white">🌐 统一网络接口</text>
  <text x="470" y="165" class="small-text" fill="white">• 多厂商设备统一管理</text>
  <text x="470" y="185" class="small-text" fill="white">• 插件化架构灵活扩展</text>
  <text x="470" y="205" class="small-text" fill="white">• 标准化数据格式</text>
  
  <text x="470" y="235" class="text" fill="white">⚡ 高性能优化</text>
  <text x="470" y="260" class="small-text" fill="white">• SSH长连接保活</text>
  <text x="470" y="280" class="small-text" fill="white">• 性能提升80%+</text>
  <text x="470" y="300" class="small-text" fill="white">• 智能任务调度</text>
  
  <text x="470" y="330" class="text" fill="white">🤖 AI智能集成</text>
  <text x="470" y="355" class="small-text" fill="white">• AI Agent通信接口</text>
  <text x="470" y="375" class="small-text" fill="white">• 智能网络自动化</text>
  
  <!-- 价值区域 -->
  <rect x="850" y="80" width="300" height="320" rx="10" class="value-box" opacity="0.9"/>
  <text x="1000" y="110" text-anchor="middle" class="subtitle" fill="white">业务价值</text>
  
  <text x="870" y="140" class="text" fill="white">🚀 运维效率显著提升</text>
  <text x="870" y="165" class="small-text" fill="white">• 配置部署自动化</text>
  <text x="870" y="185" class="small-text" fill="white">• 设备管理批量处理</text>
  <text x="870" y="205" class="small-text" fill="white">• 网络状态实时监控</text>
  
  <text x="870" y="235" class="text" fill="white">💰 运维成本大幅降低</text>
  <text x="870" y="260" class="small-text" fill="white">• 人工操作大幅减少</text>
  <text x="870" y="280" class="small-text" fill="white">• 错误率显著降低</text>
  <text x="870" y="300" class="small-text" fill="white">• 响应速度明显提升</text>
  
  <text x="870" y="330" class="text" fill="white">🤖 AI能力增强</text>
  <text x="870" y="355" class="small-text" fill="white">• AI Agent通信支撑</text>
  <text x="870" y="375" class="small-text" fill="white">• 智能网络自动化</text>
  
  <!-- 箭头 -->
  <line x1="350" y1="240" x2="450" y2="240" class="arrow"/>
  <line x1="750" y1="240" x2="850" y2="240" class="arrow"/>
  
  <!-- 核心特性展示 -->
  <rect x="50" y="420" width="1100" height="350" rx="10" fill="white" stroke="#bdc3c7" stroke-width="2"/>
  <text x="600" y="450" text-anchor="middle" class="subtitle">NetPulse 核心特性</text>
  
  <!-- 特性1: 高性能 -->
  <rect x="80" y="470" width="250" height="120" rx="8" fill="#e8f5e8" stroke="#27ae60" stroke-width="2"/>
  <text x="205" y="495" text-anchor="middle" class="text" fill="#27ae60">⚡ 高性能</text>
  <text x="95" y="520" class="small-text">• SSH长连接保活</text>
  <text x="95" y="540" class="small-text">• 延迟降低80%+</text>
  <text x="95" y="560" class="small-text">• 智能任务调度</text>
  <text x="95" y="580" class="small-text">• 批量操作优化</text>
  
  <!-- 特性2: 高可用 -->
  <rect x="350" y="470" width="250" height="120" rx="8" fill="#e8f4fd" stroke="#3498db" stroke-width="2"/>
  <text x="475" y="495" text-anchor="middle" class="text" fill="#3498db">🏗️ 高可用</text>
  <text x="365" y="520" class="small-text">• 分布式架构</text>
  <text x="365" y="540" class="small-text">• 多主多从设计</text>
  <text x="365" y="560" class="small-text">• 自动故障转移</text>
  <text x="365" y="580" class="small-text">• 水平扩展支持</text>
  
  <!-- 特性3: 易扩展 -->
  <rect x="620" y="470" width="250" height="120" rx="8" fill="#fef9e7" stroke="#f39c12" stroke-width="2"/>
  <text x="745" y="495" text-anchor="middle" class="text" fill="#f39c12">🔧 易扩展</text>
  <text x="635" y="520" class="small-text">• 插件化架构</text>
  <text x="635" y="540" class="small-text">• 多驱动支持</text>
  <text x="635" y="560" class="small-text">• 模板引擎</text>
  <text x="635" y="580" class="small-text">• AI Agent集成</text>
  
  <!-- 特性4: 易使用 -->
  <rect x="890" y="470" width="250" height="120" rx="8" fill="#f4e6ff" stroke="#9b59b6" stroke-width="2"/>
  <text x="1015" y="495" text-anchor="middle" class="text" fill="#9b59b6">🎯 易使用</text>
  <text x="905" y="520" class="small-text">• RESTful API</text>
  <text x="905" y="540" class="small-text">• 统一接口设计</text>
  <text x="905" y="560" class="small-text">• 丰富文档支持</text>
  <text x="905" y="580" class="small-text">• 一键部署</text>
  
  <!-- 应用场景 -->
  <rect x="80" y="620" width="1060" height="130" rx="8" fill="#f8f9fa" stroke="#95a5a6" stroke-width="2"/>
  <text x="610" y="645" text-anchor="middle" class="subtitle">典型应用场景</text>
  
  <text x="100" y="670" class="text">🏢 企业网络管理</text>
  <text x="100" y="690" class="small-text">• 多厂商设备统一管理</text>
  <text x="100" y="710" class="small-text">• 自动化配置部署</text>
  
  <text x="350" y="670" class="text">☁️ 云网络运维</text>
  <text x="350" y="690" class="small-text">• 多租户设备隔离管理</text>
  <text x="350" y="710" class="small-text">• 动态扩缩容支持</text>
  
  <text x="600" y="670" class="text">🤖 AI智能网络</text>
  <text x="600" y="690" class="small-text">• 提供AI Agent通用接口</text>
  <text x="600" y="710" class="small-text">• 网络配置数据收集</text>
  <text x="600" y="730" class="small-text">• 支持AI模型快速调参</text>
  
  <text x="850" y="670" class="text">📊 网络分析</text>
  <text x="850" y="690" class="small-text">• 配置合规检查</text>
  <text x="850" y="710" class="small-text">• 性能数据分析</text>
</svg> 