<?xml version="1.0" encoding="UTF-8"?>
<svg width="1200" height="1050" xmlns="http://www.w3.org/2000/svg">
  <defs>
    <style>
      .title { font-family: Arial, sans-serif; font-size: 20px; font-weight: bold; fill: #2c3e50; }
      .subtitle { font-family: Arial, sans-serif; font-size: 16px; font-weight: bold; fill: #34495e; }
      .text { font-family: Arial, sans-serif; font-size: 14px; fill: #2c3e50; }
      .small-text { font-family: Arial, sans-serif; font-size: 12px; fill: #7f8c8d; }
      .client { fill: #3498db; stroke: #2980b9; stroke-width: 2; }
      .api { fill: #2ecc71; stroke: #27ae60; stroke-width: 2; }
      .queue { fill: #e67e22; stroke: #d35400; stroke-width: 2; }
      .worker { fill: #9b59b6; stroke: #8e44ad; stroke-width: 2; }
      .device { fill: #3498db; stroke: #2980b9; stroke-width: 2; }
      .arrow { stroke: #95a5a6; stroke-width: 2; marker-end: url(#arrowhead); }
      .arrow-bold { stroke: #3498db; stroke-width: 2.5; marker-end: url(#arrowhead-bold); }
      .flow-text { font-family: Arial, sans-serif; font-size: 12px; fill: #2c3e50; }
    </style>
    <marker id="arrowhead" markerWidth="10" markerHeight="8" refX="9" refY="4" orient="auto">
      <path d="M0,0 L10,4 L0,8" fill="#95a5a6"/>
    </marker>
    <marker id="arrowhead-bold" markerWidth="12" markerHeight="9" refX="11" refY="4.5" orient="auto">
      <path d="M0,0 L12,4.5 L0,9" fill="#3498db"/>
    </marker>
  </defs>
  
  <!-- 整体向右偏移50px，所有x坐标+50 -->
  
  <!-- 标题 -->
  <text x="600" y="50" text-anchor="middle" class="title">NetPulse Core Workflow</text>
  
  <!-- 客户端层 -->
  <rect x="100" y="80" width="1000" height="100" rx="10" fill="#f8f9fa" stroke="#bdc3c7" stroke-width="2"/>
  <text x="600" y="105" text-anchor="middle" class="subtitle">Client Layer</text>
  
  <!-- 客户端组件 -->
  <rect x="170" y="120" width="120" height="40" rx="5" class="client"/>
  <text x="230" y="145" text-anchor="middle" class="text" fill="white">API Client</text>
  
  <rect x="340" y="120" width="120" height="40" rx="5" class="client"/>
  <text x="400" y="145" text-anchor="middle" class="text" fill="white">CLI Tool</text>
  
  <rect x="510" y="120" width="120" height="40" rx="5" class="client"/>
  <text x="570" y="145" text-anchor="middle" class="text" fill="white">Web UI</text>
  
  <rect x="680" y="120" width="120" height="40" rx="5" class="client"/>
  <text x="740" y="145" text-anchor="middle" class="text" fill="white">MCP Access</text>
  
  <rect x="850" y="120" width="120" height="40" rx="5" class="client"/>
  <text x="910" y="145" text-anchor="middle" class="text" fill="white">Monitor System</text>
  
  <!-- API层 -->
  <rect x="100" y="220" width="1000" height="100" rx="10" fill="#f8f9fa" stroke="#bdc3c7" stroke-width="2"/>
  <text x="600" y="245" text-anchor="middle" class="subtitle">API Layer (Controller)</text>
  
  <rect x="120" y="260" width="120" height="40" rx="5" class="api"/>
  <text x="180" y="285" text-anchor="middle" class="text" fill="white">Device Ops</text>
  
  <rect x="260" y="260" width="120" height="40" rx="5" class="api"/>
  <text x="320" y="285" text-anchor="middle" class="text" fill="white">Batch Ops</text>
  
  <rect x="400" y="260" width="120" height="40" rx="5" class="api"/>
  <text x="460" y="285" text-anchor="middle" class="text" fill="white">Template</text>
  
  <rect x="540" y="260" width="120" height="40" rx="5" class="api"/>
  <text x="600" y="285" text-anchor="middle" class="text" fill="white">Task Mgmt</text>
  
  <rect x="680" y="260" width="120" height="40" rx="5" class="api"/>
  <text x="740" y="285" text-anchor="middle" class="text" fill="white">Worker Mgmt</text>
  
  <rect x="820" y="260" width="120" height="40" rx="5" class="api"/>
  <text x="880" y="285" text-anchor="middle" class="text" fill="white">Health Check</text>
  
  <rect x="960" y="260" width="120" height="40" rx="5" class="api"/>
  <text x="1020" y="285" text-anchor="middle" class="text" fill="white">Conn Test</text>
  
  <!-- 队列层 -->
  <rect x="100" y="360" width="1000" height="100" rx="10" fill="#f8f9fa" stroke="#bdc3c7" stroke-width="2"/>
  <text x="600" y="385" text-anchor="middle" class="subtitle">Task Queue (Redis)</text>
  
  <rect x="170" y="400" width="200" height="40" rx="5" class="queue"/>
  <text x="270" y="425" text-anchor="middle" class="text" fill="white">FIFO Task Queue</text>
  
  <rect x="420" y="400" width="200" height="40" rx="5" class="queue"/>
  <text x="520" y="425" text-anchor="middle" class="text" fill="white">Pinned Task Queue</text>
  
  <rect x="670" y="400" width="200" height="40" rx="5" class="queue"/>
  <text x="770" y="425" text-anchor="middle" class="text" fill="white">Task State Storage</text>
  
  <rect x="920" y="400" width="160" height="40" rx="5" class="queue"/>
  <text x="1000" y="425" text-anchor="middle" class="text" fill="white">Conn State Storage</text>
  
  <!-- Worker层 -->
  <rect x="100" y="500" width="1000" height="140" rx="10" fill="#f8f9fa" stroke="#bdc3c7" stroke-width="2"/>
  <text x="600" y="525" text-anchor="middle" class="subtitle">Worker Layer</text>
  
  <!-- FIFO Worker -->
  <rect x="120" y="550" width="300" height="70" rx="8" class="worker"/>
  <text x="270" y="575" text-anchor="middle" class="text" fill="white">FIFO Worker</text>
  <text x="270" y="595" text-anchor="middle" class="small-text" fill="white">Concurrent Query Processing</text>
  <text x="270" y="610" text-anchor="middle" class="small-text" fill="white">No Device Binding</text>
  
  <!-- Node Worker -->
  <rect x="460" y="550" width="300" height="70" rx="8" class="worker"/>
  <text x="610" y="575" text-anchor="middle" class="text" fill="white">Node Worker</text>
  <text x="610" y="595" text-anchor="middle" class="small-text" fill="white">Manages Pinned Workers</text>
  <text x="610" y="610" text-anchor="middle" class="small-text" fill="white">Node Status Monitoring</text>
  
  <!-- Pinned Worker -->
  <rect x="800" y="550" width="280" height="70" rx="8" class="worker"/>
  <text x="940" y="575" text-anchor="middle" class="text" fill="white">Pinned Worker</text>
  <text x="940" y="595" text-anchor="middle" class="small-text" fill="white">One-to-One Device Binding</text>
  <text x="940" y="610" text-anchor="middle" class="small-text" fill="white">SSH Keep-Alive</text>
  
  <!-- 设备层 -->
  <rect x="100" y="680" width="1000" height="100" rx="10" fill="#f8f9fa" stroke="#bdc3c7" stroke-width="2"/>
  <text x="600" y="705" text-anchor="middle" class="subtitle">Network Device Layer</text>
  
  <!-- 设备布局 -->
  <rect x="120" y="725" width="120" height="40" rx="5" class="device"/>
  <text x="180" y="750" text-anchor="middle" class="text" fill="white">Cisco</text>
  
  <rect x="260" y="725" width="120" height="40" rx="5" class="device"/>
  <text x="320" y="750" text-anchor="middle" class="text" fill="white">Huawei</text>
  
  <rect x="400" y="725" width="120" height="40" rx="5" class="device"/>
  <text x="460" y="750" text-anchor="middle" class="text" fill="white">H3C</text>
  
  <rect x="540" y="725" width="120" height="40" rx="5" class="device"/>
  <text x="600" y="750" text-anchor="middle" class="text" fill="white">Juniper</text>
  
  <rect x="680" y="725" width="120" height="40" rx="5" class="device"/>
  <text x="740" y="750" text-anchor="middle" class="text" fill="white">Arista</text>
  
  <rect x="820" y="725" width="120" height="40" rx="5" class="device"/>
  <text x="880" y="750" text-anchor="middle" class="text" fill="white">Cloud Devices</text>
  
  <rect x="960" y="725" width="120" height="40" rx="5" class="device"/>
  <text x="1020" y="750" text-anchor="middle" class="text" fill="white">Virtual Devices</text>
  
  <!-- 主要流程箭头 -->
  <line x1="600" y1="180" x2="600" y2="220" class="arrow-bold"/>
  <text x="620" y="205" class="flow-text">Request</text>
  
  <line x1="600" y1="320" x2="600" y2="360" class="arrow-bold"/>
  <text x="620" y="345" class="flow-text">Task</text>
  
  <line x1="600" y1="460" x2="600" y2="500" class="arrow-bold"/>
  <text x="620" y="485" class="flow-text">Execute</text>
  
  <line x1="600" y1="640" x2="600" y2="680" class="arrow-bold"/>
  <text x="620" y="665" class="flow-text">Operate</text>
  
  <!-- 流程说明 -->
  <rect x="100" y="820" width="1000" height="200" rx="10" fill="#f8f9fa" stroke="#bdc3c7" stroke-width="2"/>
  <text x="600" y="845" text-anchor="middle" class="subtitle">Workflow Description</text>
  
  <!-- 流程1-3 第一行 -->
  <text x="180" y="880" class="text">1️⃣ Request Reception</text>
  <text x="180" y="900" class="small-text">• Client sends request via RESTful API</text>
  <text x="180" y="920" class="small-text">• API layer validates format and permissions</text>
  <text x="180" y="940" class="small-text">• Select task queue based on operation type</text>
  
  <text x="450" y="880" class="text">2️⃣ Task Scheduling</text>
  <text x="450" y="900" class="small-text">• Smart scheduler analyzes task type</text>
  <text x="450" y="920" class="small-text">• Query tasks assigned to FIFO Worker</text>
  <text x="450" y="940" class="small-text">• Config tasks assigned to Pinned Worker</text>
  
  <text x="720" y="880" class="text">3️⃣ Task Execution</text>
  <text x="720" y="900" class="small-text">• Worker establishes or reuses device connection</text>
  <text x="720" y="920" class="small-text">• Executes commands and collects results</text>
  <text x="720" y="940" class="small-text">• Updates task status and results</text>
  
  <!-- 流程4-6 第二行 -->
  <text x="180" y="970" class="text">4️⃣ Result Return</text>
  <text x="180" y="990" class="small-text">• Results stored in Redis queue</text>
  <text x="180" y="1010" class="small-text">• API layer returns results to client</text>
  
  <text x="450" y="970" class="text">5️⃣ Connection Management</text>
  <text x="450" y="990" class="small-text">• Pinned Worker maintains SSH connections</text>
  <text x="450" y="1010" class="small-text">• Regular keep-alive for stability</text>
  
  <text x="720" y="970" class="text">6️⃣ Scalability Assurance</text>
  <text x="720" y="990" class="small-text">• Supports horizontal Worker scaling</text>
  <text x="720" y="1010" class="small-text">• Unified multi-vendor device management</text>
</svg> 